# xmcd
#
# Track frame offsets:
#	150
#	15264
#	26247
#	45725
#	65770
#	92303
#	110711
#	127940
#	144107
#	167803
#	186373
#	205325
#	217657
#	233393
#	278004
#	296426
#
# Disc length: 4229 seconds
#
# Revision: 1
# Processed by: cddbd v1.5PL3 Copyright (c) Steve Scherf et al.
# Submitted via: audiograbber 1.82.01
#
DISCID=d6108310
DTITLE=Elvis Costello - 2004-03-07 - VogueTheater,Vancouver - Disc 1
DYEAR=1900
DGENRE=
TTITLE0=Elvis Costello - 45
TTITLE1=Elvis Costello - Green Shirt
TTITLE2=Elvis Costello - 03 New Amsterdam
TTITLE3=Elvis Costello - The Long Honeymoon
TTITLE4=Elvis Costello - This House Is Empty Now
TTITLE5=Elvis Costello - You Left Me In The Dark
TTITLE6=Elvis Costello - Someone Took The Words Away
TTITLE7=Elvis Costello - Home Truth
TTITLE8=Elvis Costello - Indoor Fireworks
TTITLE9=Elvis Costello - No Wonder
TTITLE10=Elvis Costello - Unwanted Number
TTITLE11=Elvis Costello - You Turned To Me
TTITLE12=Elvis Costello - Fallen
TTITLE13=Elvis Costello - God's Comic
TTITLE14=Elvis Costello - Shipbuilding
TTITLE15=Elvis Costello - (What's So Funny 'Bout) Peace, Love and Understanding
EXTD=
EXTT0=
EXTT1=
EXTT2=
EXTT3=
EXTT4=
EXTT5=
EXTT6=
EXTT7=
EXTT8=
EXTT9=
EXTT10=
EXTT11=
EXTT12=
EXTT13=
EXTT14=
EXTT15=
PLAYORDER=
